<svg width="12" height="12" viewBox="0 0 12 12" fill="none" xmlns="http://www.w3.org/2000/svg">
<g id="arrow_back_ios_new">
<mask id="mask0_2031_851" style="mask-type:alpha" maskUnits="userSpaceOnUse" x="0" y="0" width="12" height="12">
<rect id="Bounding box" width="12" height="12" transform="matrix(-1 0 0 1 12 0)" fill="#D9D9D9"/>
</mask>
<g mask="url(#mask0_2031_851)">
<path id="arrow_back_ios_new_2" d="M7.22502 6.00004L3.55002 9.67504C3.42502 9.80004 3.36461 9.94587 3.36877 10.1125C3.37294 10.2792 3.43752 10.425 3.56252 10.55C3.68752 10.675 3.83336 10.7375 4.00002 10.7375C4.16669 10.7375 4.31252 10.675 4.43752 10.55L8.28752 6.71254C8.38752 6.61254 8.46252 6.50004 8.51252 6.37504C8.56252 6.25004 8.58752 6.12504 8.58752 6.00004C8.58752 5.87504 8.56252 5.75004 8.51252 5.62504C8.46252 5.50004 8.38752 5.38754 8.28752 5.28754L4.43752 1.43754C4.31252 1.31254 4.16461 1.25212 3.99377 1.25629C3.82294 1.26046 3.67502 1.32504 3.55002 1.45004C3.42502 1.57504 3.36252 1.72087 3.36252 1.88754C3.36252 2.05421 3.42502 2.20004 3.55002 2.32504L7.22502 6.00004Z" fill="#8F98A8"/>
</g>
</g>
</svg>
