<svg width="17" height="18" viewBox="0 0 17 18" fill="none" xmlns="http://www.w3.org/2000/svg">
<g clip-path="url(#clip0_2053_1479)">
<path fill-rule="evenodd" clip-rule="evenodd" d="M16.8056 0.80414C16.8664 0.854009 16.9154 0.916763 16.949 0.987872C16.9826 1.05898 17.0001 1.13667 17 1.21533V16.0903C16.9999 16.2131 16.9573 16.332 16.8795 16.427C16.8016 16.5219 16.6933 16.5869 16.5729 16.611L11.2604 17.6735C11.1916 17.6872 11.1209 17.6872 11.0521 17.6735L5.84375 16.6322L0.635375 17.6735C0.558332 17.6889 0.478832 17.687 0.402603 17.6679C0.326374 17.6489 0.255314 17.6132 0.194543 17.5634C0.133772 17.5136 0.0848017 17.451 0.0511613 17.38C0.0175208 17.309 4.74435e-05 17.2314 0 17.1528L0 2.27783C7.41434e-05 2.15506 0.0426659 2.03611 0.120534 1.94119C0.198401 1.84628 0.306738 1.78126 0.427125 1.7572L5.73962 0.694702C5.80836 0.680963 5.87914 0.680963 5.94788 0.694702L11.1562 1.73595L16.3646 0.694702C16.4416 0.679206 16.5211 0.680985 16.5974 0.699908C16.6736 0.718832 16.7447 0.754431 16.8056 0.80414ZM10.625 2.71345L6.375 1.86345V15.6547L10.625 16.5047V2.71345ZM11.6875 16.5047L15.9375 15.6547V1.86345L11.6875 2.71345V16.5047ZM5.3125 15.6547V1.86345L1.0625 2.71345V16.5047L5.3125 15.6547Z" fill="#7688FB"/>
</g>
<defs>
<clipPath id="clip0_2053_1479">
<rect width="17" height="17" fill="white" transform="translate(0 0.684265)"/>
</clipPath>
</defs>
</svg>
