<svg width="50" height="50" viewBox="0 0 50 50" fill="none" xmlns="http://www.w3.org/2000/svg">
<circle cx="25" cy="25" r="25" fill="#FEE600"/>
<path d="M25.5563 15.4113C19.4896 15.4113 14.5969 19.3253 14.5969 24.0771C14.5969 27.1614 16.6323 29.8622 19.6853 31.4042L18.6519 35.2637C18.6324 35.3214 18.6295 35.3836 18.6433 35.4429C18.6571 35.5023 18.6872 35.5569 18.7302 35.6002C18.7929 35.6554 18.8736 35.686 18.9572 35.6862C19.0266 35.6808 19.0923 35.6533 19.1451 35.608L23.5915 32.6099C24.2479 32.7004 24.9095 32.7474 25.5721 32.7507C31.6312 32.7507 36.5315 28.8366 36.5315 24.0771C36.5315 19.3175 31.6154 15.4113 25.5563 15.4113Z" fill="#392020"/>
</svg>
