<svg width="81" height="15" viewBox="0 0 81 15" fill="none" xmlns="http://www.w3.org/2000/svg">
<path d="M0.78 11.1C4.43333 11.3 6.90667 11.4 8.2 11.4C8.50667 11.4 8.74667 11.3133 8.92 11.14C9.10667 10.9533 9.2 10.7067 9.2 10.4V8.6H4.6C3.2 8.6 2.18 8.28667 1.54 7.66C0.913333 7.02 0.6 6 0.6 4.6V4C0.6 2.6 0.913333 1.58667 1.54 0.96C2.18 0.319999 3.2 -9.53674e-07 4.6 -9.53674e-07H11.62V2.8H5.4C4.6 2.8 4.2 3.2 4.2 4V4.4C4.2 5.2 4.6 5.6 5.4 5.6H9C10.3067 5.6 11.2667 5.90667 11.88 6.52C12.4933 7.13333 12.8 8.09333 12.8 9.4V10.4C12.8 11.7067 12.4933 12.6667 11.88 13.28C11.2667 13.8933 10.3067 14.2 9 14.2C8.32 14.2 7.6 14.1867 6.84 14.16L5 14.08C3.64 14.0133 2.23333 13.92 0.78 13.8V11.1ZM19.7984 14C18.9051 14.1333 18.0518 14.2 17.2384 14.2C16.4384 14.2 15.7651 13.9267 15.2184 13.38C14.6718 12.8333 14.3984 12.1067 14.3984 11.2V-9.53674e-07H17.8984V10.7C17.8984 10.9 17.9651 11.0667 18.0984 11.2C18.2318 11.3333 18.3984 11.4 18.5984 11.4H19.7984V14ZM31.9953 11C31.9953 12 31.7086 12.7867 31.1353 13.36C30.5753 13.92 29.7953 14.2 28.7953 14.2H24.1953C23.1953 14.2 22.4086 13.92 21.8353 13.36C21.2753 12.7867 20.9953 12 20.9953 11V6.4C20.9953 5.4 21.2753 4.62 21.8353 4.06C22.4086 3.48667 23.1953 3.2 24.1953 3.2H28.7953C29.7953 3.2 30.5753 3.48667 31.1353 4.06C31.7086 4.62 31.9953 5.4 31.9953 6.4V11ZM28.4953 6.7C28.4953 6.16667 28.2286 5.9 27.6953 5.9H25.2953C24.762 5.9 24.4953 6.16667 24.4953 6.7V10.7C24.4953 11.2333 24.762 11.5 25.2953 11.5H27.6953C28.2286 11.5 28.4953 11.2333 28.4953 10.7V6.7ZM44.7977 9.8L46.5977 3.4H50.3977L47.0977 14H43.3977L41.3977 7.6L39.3977 14H35.6977L32.3977 3.4H36.1977L37.9977 9.8L39.7977 3.4H42.9977L44.7977 9.8ZM55.0047 11.4C55.7114 11.4 56.5114 11.2667 57.4047 11V9.8H54.5047C54.3047 9.8 54.138 9.86667 54.0047 10C53.8714 10.1333 53.8047 10.3 53.8047 10.5V10.7C53.8047 10.9 53.8714 11.0667 54.0047 11.2C54.138 11.3333 54.3047 11.4 54.5047 11.4H55.0047ZM51.3047 3.6C53.7447 3.33333 55.9447 3.2 57.9047 3.2C58.8114 3.2 59.538 3.47333 60.0847 4.02C60.6314 4.56667 60.9047 5.29333 60.9047 6.2V14H57.8047L57.6047 13C56.978 13.4133 56.3314 13.72 55.6647 13.92C55.0114 14.1067 54.458 14.2 54.0047 14.2H53.3047C52.398 14.2 51.6714 13.9267 51.1247 13.38C50.578 12.8333 50.3047 12.1067 50.3047 11.2V10.3C50.3047 9.39333 50.578 8.66667 51.1247 8.12C51.6714 7.57333 52.398 7.3 53.3047 7.3H57.4047V6.5C57.4047 6.3 57.338 6.13333 57.2047 6C57.0714 5.86667 56.9047 5.8 56.7047 5.8C55.838 5.8 54.878 5.84 53.8247 5.92C52.7847 6 51.9447 6.06 51.3047 6.1V3.6ZM68.0992 14C67.2059 14.1333 66.3526 14.2 65.5392 14.2C64.7392 14.2 64.0659 13.9267 63.5192 13.38C62.9726 12.8333 62.6992 12.1067 62.6992 11.2V-9.53674e-07H66.1992V10.7C66.1992 10.9 66.2659 11.0667 66.3992 11.2C66.5326 11.3333 66.6992 11.4 66.8992 11.4H68.0992V14ZM72.9961 9.8V14H69.4961V-9.53674e-07H72.9961V7.1H74.5961L76.7961 3.4H80.4961L77.4961 8.5L80.4961 14H76.7961L74.4961 9.8H72.9961Z" fill="#5A72FF"/>
<path d="M0.78 11.1C4.43333 11.3 6.90667 11.4 8.2 11.4C8.50667 11.4 8.74667 11.3133 8.92 11.14C9.10667 10.9533 9.2 10.7067 9.2 10.4V8.6H4.6C3.2 8.6 2.18 8.28667 1.54 7.66C0.913333 7.02 0.6 6 0.6 4.6V4C0.6 2.6 0.913333 1.58667 1.54 0.96C2.18 0.319999 3.2 -9.53674e-07 4.6 -9.53674e-07H11.62V2.8H5.4C4.6 2.8 4.2 3.2 4.2 4V4.4C4.2 5.2 4.6 5.6 5.4 5.6H9C10.3067 5.6 11.2667 5.90667 11.88 6.52C12.4933 7.13333 12.8 8.09333 12.8 9.4V10.4C12.8 11.7067 12.4933 12.6667 11.88 13.28C11.2667 13.8933 10.3067 14.2 9 14.2C8.32 14.2 7.6 14.1867 6.84 14.16L5 14.08C3.64 14.0133 2.23333 13.92 0.78 13.8V11.1ZM19.7984 14C18.9051 14.1333 18.0518 14.2 17.2384 14.2C16.4384 14.2 15.7651 13.9267 15.2184 13.38C14.6718 12.8333 14.3984 12.1067 14.3984 11.2V-9.53674e-07H17.8984V10.7C17.8984 10.9 17.9651 11.0667 18.0984 11.2C18.2318 11.3333 18.3984 11.4 18.5984 11.4H19.7984V14ZM31.9953 11C31.9953 12 31.7086 12.7867 31.1353 13.36C30.5753 13.92 29.7953 14.2 28.7953 14.2H24.1953C23.1953 14.2 22.4086 13.92 21.8353 13.36C21.2753 12.7867 20.9953 12 20.9953 11V6.4C20.9953 5.4 21.2753 4.62 21.8353 4.06C22.4086 3.48667 23.1953 3.2 24.1953 3.2H28.7953C29.7953 3.2 30.5753 3.48667 31.1353 4.06C31.7086 4.62 31.9953 5.4 31.9953 6.4V11ZM28.4953 6.7C28.4953 6.16667 28.2286 5.9 27.6953 5.9H25.2953C24.762 5.9 24.4953 6.16667 24.4953 6.7V10.7C24.4953 11.2333 24.762 11.5 25.2953 11.5H27.6953C28.2286 11.5 28.4953 11.2333 28.4953 10.7V6.7ZM44.7977 9.8L46.5977 3.4H50.3977L47.0977 14H43.3977L41.3977 7.6L39.3977 14H35.6977L32.3977 3.4H36.1977L37.9977 9.8L39.7977 3.4H42.9977L44.7977 9.8ZM55.0047 11.4C55.7114 11.4 56.5114 11.2667 57.4047 11V9.8H54.5047C54.3047 9.8 54.138 9.86667 54.0047 10C53.8714 10.1333 53.8047 10.3 53.8047 10.5V10.7C53.8047 10.9 53.8714 11.0667 54.0047 11.2C54.138 11.3333 54.3047 11.4 54.5047 11.4H55.0047ZM51.3047 3.6C53.7447 3.33333 55.9447 3.2 57.9047 3.2C58.8114 3.2 59.538 3.47333 60.0847 4.02C60.6314 4.56667 60.9047 5.29333 60.9047 6.2V14H57.8047L57.6047 13C56.978 13.4133 56.3314 13.72 55.6647 13.92C55.0114 14.1067 54.458 14.2 54.0047 14.2H53.3047C52.398 14.2 51.6714 13.9267 51.1247 13.38C50.578 12.8333 50.3047 12.1067 50.3047 11.2V10.3C50.3047 9.39333 50.578 8.66667 51.1247 8.12C51.6714 7.57333 52.398 7.3 53.3047 7.3H57.4047V6.5C57.4047 6.3 57.338 6.13333 57.2047 6C57.0714 5.86667 56.9047 5.8 56.7047 5.8C55.838 5.8 54.878 5.84 53.8247 5.92C52.7847 6 51.9447 6.06 51.3047 6.1V3.6ZM68.0992 14C67.2059 14.1333 66.3526 14.2 65.5392 14.2C64.7392 14.2 64.0659 13.9267 63.5192 13.38C62.9726 12.8333 62.6992 12.1067 62.6992 11.2V-9.53674e-07H66.1992V10.7C66.1992 10.9 66.2659 11.0667 66.3992 11.2C66.5326 11.3333 66.6992 11.4 66.8992 11.4H68.0992V14ZM72.9961 9.8V14H69.4961V-9.53674e-07H72.9961V7.1H74.5961L76.7961 3.4H80.4961L77.4961 8.5L80.4961 14H76.7961L74.4961 9.8H72.9961Z" fill="black" fill-opacity="0.2"/>
</svg>
