<svg width="17" height="18" viewBox="0 0 17 18" fill="none" xmlns="http://www.w3.org/2000/svg">
<path d="M10.9367 8.5892C11.3659 8.10635 11.6021 7.50755 11.6072 6.8892C11.6072 6.14752 11.2799 5.43622 10.6971 4.91178C10.1144 4.38733 9.32409 4.0927 8.5 4.0927C7.67591 4.0927 6.88558 4.38733 6.30286 4.91178C5.72014 5.43622 5.39278 6.14752 5.39278 6.8892C5.3979 7.50755 5.63409 8.10635 6.06333 8.5892C5.22148 9.05028 4.561 9.73684 4.17444 10.5527C4.12034 10.6562 4.09001 10.7685 4.08527 10.8828C4.08053 10.9971 4.10148 11.1111 4.14686 11.218C4.19224 11.3248 4.26111 11.4223 4.34936 11.5047C4.43762 11.587 4.54342 11.6524 4.66045 11.6971C4.77747 11.7417 4.90331 11.7647 5.03041 11.7645C5.15752 11.7643 5.28328 11.7411 5.40016 11.6961C5.51704 11.6512 5.62264 11.5855 5.71063 11.5029C5.79862 11.4204 5.86718 11.3227 5.91222 11.2157C6.12929 10.759 6.48981 10.3694 6.94953 10.0945C7.40924 9.81972 7.94812 9.67171 8.5 9.6687C9.05349 9.67006 9.59441 9.81729 10.056 10.0922C10.5175 10.3671 10.8795 10.7577 11.0972 11.2157C11.1695 11.3693 11.2905 11.5004 11.445 11.5926C11.5995 11.6848 11.7807 11.7341 11.9661 11.7342C12.0925 11.7321 12.2173 11.709 12.3344 11.6662C12.5648 11.5781 12.7468 11.4114 12.8407 11.2026C12.9345 10.9939 12.9325 10.7601 12.835 10.5527C12.446 9.73563 11.782 9.04892 10.9367 8.5892ZM8.5 7.9687C8.25864 7.96869 8.02271 7.90416 7.82216 7.7833C7.62161 7.66243 7.46546 7.49068 7.37353 7.28982C7.2816 7.08897 7.25803 6.86807 7.30581 6.65514C7.35359 6.44221 7.47057 6.24685 7.6419 6.09385C7.81324 5.94084 8.03121 5.83709 8.26816 5.79574C8.50511 5.7544 8.75037 5.77733 8.97282 5.86163C9.19527 5.94592 9.38488 6.08778 9.51761 6.26922C9.65034 6.45065 9.7202 6.66348 9.71833 6.8807C9.71584 7.17003 9.58638 7.44675 9.35817 7.65055C9.12996 7.85435 8.82149 7.96871 8.5 7.9687ZM14.1667 0.684204H2.83333C2.08189 0.684204 1.36122 0.952864 0.829864 1.43108C0.298511 1.9093 0 2.5579 0 3.2342V12.5842C0 13.2605 0.298511 13.9091 0.829864 14.3873C1.36122 14.8655 2.08189 15.1342 2.83333 15.1342H5.27944L7.82944 17.4377C7.91769 17.5165 8.02235 17.5788 8.13742 17.6211C8.25249 17.6634 8.3757 17.6848 8.5 17.6842C8.7251 17.6842 8.94281 17.6119 9.11389 17.4802L12.155 15.1342H14.1667C14.9181 15.1342 15.6388 14.8655 16.1701 14.3873C16.7015 13.9091 17 13.2605 17 12.5842V3.2342C17 2.5579 16.7015 1.9093 16.1701 1.43108C15.6388 0.952864 14.9181 0.684204 14.1667 0.684204ZM15.1111 12.5842C15.1111 12.8096 15.0116 13.0258 14.8345 13.1852C14.6574 13.3446 14.4172 13.4342 14.1667 13.4342H11.8056C11.5805 13.4342 11.3627 13.5065 11.1917 13.6382L8.54722 15.6782L6.33722 13.6807C6.24897 13.6019 6.14431 13.5396 6.02924 13.4973C5.91418 13.455 5.79096 13.4335 5.66667 13.4342H2.83333C2.58285 13.4342 2.34263 13.3446 2.16551 13.1852C1.98839 13.0258 1.88889 12.8096 1.88889 12.5842V3.2342C1.88889 3.00877 1.98839 2.79257 2.16551 2.63316C2.34263 2.47376 2.58285 2.3842 2.83333 2.3842H14.1667C14.4172 2.3842 14.6574 2.47376 14.8345 2.63316C15.0116 2.79257 15.1111 3.00877 15.1111 3.2342V12.5842Z" fill="#7688FB"/>
</svg>
