<svg width="160" height="29" viewBox="0 0 160 29" fill="none" xmlns="http://www.w3.org/2000/svg">
<path d="M0.56 22.2C7.86667 22.6 12.8133 22.8 15.4 22.8C16.0133 22.8 16.4933 22.6267 16.84 22.28C17.2133 21.9067 17.4 21.4133 17.4 20.8V17.2H8.2C5.4 17.2 3.36 16.5733 2.08 15.32C0.826667 14.04 0.2 12 0.2 9.2V8C0.2 5.2 0.826667 3.17333 2.08 1.92C3.36 0.639999 5.4 -1.90735e-06 8.2 -1.90735e-06H22.24V5.6H9.8C8.2 5.6 7.4 6.4 7.4 8V8.8C7.4 10.4 8.2 11.2 9.8 11.2H17C19.6133 11.2 21.5333 11.8133 22.76 13.04C23.9867 14.2667 24.6 16.1867 24.6 18.8V20.8C24.6 23.4133 23.9867 25.3333 22.76 26.56C21.5333 27.7867 19.6133 28.4 17 28.4C15.64 28.4 14.2 28.3733 12.68 28.32L9 28.16C6.28 28.0267 3.46667 27.84 0.56 27.6V22.2ZM38.5969 28C36.8102 28.2667 35.1035 28.4 33.4769 28.4C31.8769 28.4 30.5302 27.8533 29.4369 26.76C28.3435 25.6667 27.7969 24.2133 27.7969 22.4V-1.90735e-06H34.7969V21.4C34.7969 21.8 34.9302 22.1333 35.1969 22.4C35.4635 22.6667 35.7969 22.8 36.1969 22.8H38.5969V28ZM62.9906 22C62.9906 24 62.4173 25.5733 61.2706 26.72C60.1506 27.84 58.5906 28.4 56.5906 28.4H47.3906C45.3906 28.4 43.8173 27.84 42.6706 26.72C41.5506 25.5733 40.9906 24 40.9906 22V12.8C40.9906 10.8 41.5506 9.24 42.6706 8.12C43.8173 6.97333 45.3906 6.4 47.3906 6.4H56.5906C58.5906 6.4 60.1506 6.97333 61.2706 8.12C62.4173 9.24 62.9906 10.8 62.9906 12.8V22ZM55.9906 13.4C55.9906 12.3333 55.4573 11.8 54.3906 11.8H49.5906C48.524 11.8 47.9906 12.3333 47.9906 13.4V21.4C47.9906 22.4667 48.524 23 49.5906 23H54.3906C55.4573 23 55.9906 22.4667 55.9906 21.4V13.4ZM88.5953 19.6L92.1953 6.8H99.7953L93.1953 28H85.7953L81.7953 15.2L77.7953 28H70.3953L63.7953 6.8H71.3953L74.9953 19.6L78.5953 6.8H84.9953L88.5953 19.6ZM109.009 22.8C110.423 22.8 112.023 22.5333 113.809 22V19.6H108.009C107.609 19.6 107.276 19.7333 107.009 20C106.743 20.2667 106.609 20.6 106.609 21V21.4C106.609 21.8 106.743 22.1333 107.009 22.4C107.276 22.6667 107.609 22.8 108.009 22.8H109.009ZM101.609 7.2C106.489 6.66667 110.889 6.4 114.809 6.4C116.623 6.4 118.076 6.94667 119.169 8.04C120.263 9.13333 120.809 10.5867 120.809 12.4V28H114.609L114.209 26C112.956 26.8267 111.663 27.44 110.329 27.84C109.023 28.2133 107.916 28.4 107.009 28.4H105.609C103.796 28.4 102.343 27.8533 101.249 26.76C100.156 25.6667 99.6094 24.2133 99.6094 22.4V20.6C99.6094 18.7867 100.156 17.3333 101.249 16.24C102.343 15.1467 103.796 14.6 105.609 14.6H113.809V13C113.809 12.6 113.676 12.2667 113.409 12C113.143 11.7333 112.809 11.6 112.409 11.6C110.676 11.6 108.756 11.68 106.649 11.84C104.569 12 102.889 12.12 101.609 12.2V7.2ZM135.198 28C133.412 28.2667 131.705 28.4 130.078 28.4C128.478 28.4 127.132 27.8533 126.038 26.76C124.945 25.6667 124.398 24.2133 124.398 22.4V-1.90735e-06H131.398V21.4C131.398 21.8 131.532 22.1333 131.798 22.4C132.065 22.6667 132.398 22.8 132.798 22.8H135.198V28ZM144.992 19.6V28H137.992V-1.90735e-06H144.992V14.2H148.192L152.592 6.8H159.992L153.992 17L159.992 28H152.592L147.992 19.6H144.992Z" fill="white"/>
</svg>
