<svg width="36" height="36" viewBox="0 0 36 36" fill="none" xmlns="http://www.w3.org/2000/svg">
<rect width="36" height="36" rx="18" fill="#F3F4F6"/>
<path d="M23.7411 17.9917C23.7411 21.167 21.167 23.7411 17.9917 23.7411C14.8163 23.7411 12.2422 21.167 12.2422 17.9917C12.2422 14.8163 14.8163 12.2422 17.9917 12.2422C21.167 12.2422 23.7411 14.8163 23.7411 17.9917Z" fill="#F8B200"/>
<path fill-rule="evenodd" clip-rule="evenodd" d="M18 30C24.6274 30 30 24.6274 30 18C30 11.3726 24.6274 6 18 6C11.3726 6 6 11.3726 6 18C6 24.6274 11.3726 30 18 30ZM26.1504 17.9917C26.1504 22.4976 22.4976 26.1504 17.9917 26.1504C13.4857 26.1504 9.83295 22.4976 9.83295 17.9917C9.83295 13.4857 13.4857 9.83295 17.9917 9.83295C22.4976 9.83295 26.1504 13.4857 26.1504 17.9917Z" fill="#F8B200"/>
</svg>
