<svg width="325" height="175" viewBox="0 0 325 175" fill="none" xmlns="http://www.w3.org/2000/svg">
<rect opacity="0.3" x="181" width="93" height="78" rx="8" fill="#F3F4F6"/>
<rect width="325" height="175" rx="15" fill="url(#paint0_linear_2103_401)"/>
<path d="M31.8818 118.765V120.275H26.1875V122.948H31.2842V124.409H26.1875V127.497C28.6445 127.489 30.5205 127.406 32.6787 127.049L32.8613 128.543C30.5039 128.908 28.3955 128.991 25.623 128.991H24.3613V118.765H31.8818ZM36.0322 117.47V132.478H34.1729V117.47H36.0322ZM45.8271 118.864V122.766H48.9482V117.47H50.7744V132.494H48.9482V124.26H45.8271V128.775H38.7549V118.864H45.8271ZM40.5977 120.309V127.314H44.0176V120.309H40.5977ZM65.4004 117.47V132.478H63.5742V117.47H65.4004ZM55.5723 118.931V127.132C57.6807 127.099 59.9219 126.908 62.2295 126.451L62.4619 127.995C59.8223 128.543 57.3652 128.709 55.041 128.709H53.7461V118.931H55.5723ZM75.3779 118.947C75.3779 123.479 74.1328 127.364 68.6045 130.12L67.5918 128.726C70.1899 127.439 71.7339 125.945 72.6055 124.16L67.9404 124.608L67.708 123.015L73.1699 122.666C73.3608 121.969 73.4771 121.23 73.5352 120.441H68.4883V118.947H75.3779ZM79.3291 117.47V123.347H81.5537V124.857H79.3291V132.444H77.4863V117.47H79.3291ZM94.4531 124.509V125.986H83.9277V118.781H94.3369V120.275H85.7539V124.509H94.4531ZM95.9805 129.041V130.568H82.2676V129.041H95.9805Z" fill="white"/>
<rect x="21" y="141" width="72" height="22" rx="11" fill="#EE6575"/>
<path d="M38.2227 147.422V148.336H34.1328V150.363H37.8242V151.254H34.1328V153.609C35.9727 153.604 37.2969 153.527 38.8555 153.281L38.9727 154.184C37.3086 154.453 35.8672 154.512 33.8867 154.512H33.0312V147.422H38.2227ZM41.1172 146.496V156.996H39.9922V146.496H41.1172ZM48.043 147.504V150.27H50.4102V146.496H51.5117V157.02H50.4102V151.172H48.043V154.371H43.168V147.504H48.043ZM44.2695 148.371V153.48H46.9531V148.371H44.2695ZM61.8477 146.496V156.996H60.7344V146.496H61.8477ZM54.875 147.516V153.363C56.4043 153.352 58.0156 153.229 59.7031 152.883L59.8555 153.82C57.9922 154.195 56.3047 154.324 54.6523 154.324H53.7734V147.516H54.875ZM68.9609 147.562C68.9492 150.656 68 153.41 64.168 155.297L63.5586 154.465C65.457 153.533 66.5879 152.402 67.2148 151.066L63.7812 151.395L63.6172 150.434L67.5547 150.164C67.7129 149.631 67.8066 149.062 67.8477 148.465H64.168V147.562H68.9609ZM71.6797 146.496V150.691H73.3086V151.605H71.6797V156.984H70.5664V146.496H71.6797ZM82.3789 151.477V152.391H75.0664V147.434H82.2852V148.348H76.168V151.477H82.3789ZM83.4805 154.688V155.613H73.8711V154.688H83.4805Z" fill="#E9E9E9"/>
<path d="M198.148 145.516V154H196.613V147.004H196.566L194.586 148.27V146.875L196.684 145.516H198.148ZM203.34 154.117C201.301 154.117 200.082 152.535 200.082 149.758C200.082 146.992 201.301 145.398 203.34 145.398C205.367 145.398 206.598 146.992 206.598 149.758C206.598 152.535 205.379 154.117 203.34 154.117ZM203.34 152.84C204.406 152.84 205.062 151.797 205.062 149.758C205.062 147.73 204.395 146.664 203.34 146.664C202.285 146.664 201.617 147.73 201.617 149.758C201.617 151.797 202.273 152.84 203.34 152.84ZM211.32 145.516V154H209.785V147.004H209.738L207.758 148.27V146.875L209.855 145.516H211.32ZM216.512 154.117C214.473 154.117 213.254 152.535 213.254 149.758C213.254 146.992 214.473 145.398 216.512 145.398C218.539 145.398 219.77 146.992 219.77 149.758C219.77 152.535 218.551 154.117 216.512 154.117ZM216.512 152.84C217.578 152.84 218.234 151.797 218.234 149.758C218.234 147.73 217.566 146.664 216.512 146.664C215.457 146.664 214.789 147.73 214.789 149.758C214.789 151.797 215.445 152.84 216.512 152.84ZM227.023 154.117C224.984 154.117 223.766 152.535 223.766 149.758C223.766 146.992 224.984 145.398 227.023 145.398C229.051 145.398 230.281 146.992 230.281 149.758C230.281 152.535 229.062 154.117 227.023 154.117ZM227.023 152.84C228.09 152.84 228.746 151.797 228.746 149.758C228.746 147.73 228.078 146.664 227.023 146.664C225.969 146.664 225.301 147.73 225.301 149.758C225.301 151.797 225.957 152.84 227.023 152.84ZM234.688 154.117C232.648 154.117 231.43 152.535 231.43 149.758C231.43 146.992 232.648 145.398 234.688 145.398C236.715 145.398 237.945 146.992 237.945 149.758C237.945 152.535 236.727 154.117 234.688 154.117ZM234.688 152.84C235.754 152.84 236.41 151.797 236.41 149.758C236.41 147.73 235.742 146.664 234.688 146.664C233.633 146.664 232.965 147.73 232.965 149.758C232.965 151.797 233.621 152.84 234.688 152.84ZM242.668 145.516V154H241.133V147.004H241.086L239.105 148.27V146.875L241.203 145.516H242.668ZM245.047 154L248.727 146.852V146.793H244.461V145.516H250.309V146.816L246.629 154H245.047ZM257.281 150.285H256.285L256.379 148.598L254.961 149.523L254.457 148.668L255.969 147.906L254.457 147.133L254.961 146.277L256.379 147.203L256.285 145.516H257.281L257.188 147.203L258.605 146.277L259.098 147.133L257.598 147.906L259.098 148.668L258.605 149.523L257.188 148.598L257.281 150.285ZM263.48 150.285H262.484L262.578 148.598L261.16 149.523L260.656 148.668L262.168 147.906L260.656 147.133L261.16 146.277L262.578 147.203L262.484 145.516H263.48L263.387 147.203L264.805 146.277L265.297 147.133L263.797 147.906L265.297 148.668L264.805 149.523L263.387 148.598L263.48 150.285ZM269.68 150.285H268.684L268.777 148.598L267.359 149.523L266.855 148.668L268.367 147.906L266.855 147.133L267.359 146.277L268.777 147.203L268.684 145.516H269.68L269.586 147.203L271.004 146.277L271.496 147.133L269.996 147.906L271.496 148.668L271.004 149.523L269.586 148.598L269.68 150.285ZM275.879 150.285H274.883L274.977 148.598L273.559 149.523L273.055 148.668L274.566 147.906L273.055 147.133L273.559 146.277L274.977 147.203L274.883 145.516H275.879L275.785 147.203L277.203 146.277L277.695 147.133L276.195 147.906L277.695 148.668L277.203 149.523L275.785 148.598L275.879 150.285ZM284.926 150.285H283.93L284.023 148.598L282.605 149.523L282.102 148.668L283.613 147.906L282.102 147.133L282.605 146.277L284.023 147.203L283.93 145.516H284.926L284.832 147.203L286.25 146.277L286.742 147.133L285.242 147.906L286.742 148.668L286.25 149.523L284.832 148.598L284.926 150.285ZM291.125 150.285H290.129L290.223 148.598L288.805 149.523L288.301 148.668L289.812 147.906L288.301 147.133L288.805 146.277L290.223 147.203L290.129 145.516H291.125L291.031 147.203L292.449 146.277L292.941 147.133L291.441 147.906L292.941 148.668L292.449 149.523L291.031 148.598L291.125 150.285ZM297.324 150.285H296.328L296.422 148.598L295.004 149.523L294.5 148.668L296.012 147.906L294.5 147.133L295.004 146.277L296.422 147.203L296.328 145.516H297.324L297.23 147.203L298.648 146.277L299.141 147.133L297.641 147.906L299.141 148.668L298.648 149.523L297.23 148.598L297.324 150.285ZM303.523 150.285H302.527L302.621 148.598L301.203 149.523L300.699 148.668L302.211 147.906L300.699 147.133L301.203 146.277L302.621 147.203L302.527 145.516H303.523L303.43 147.203L304.848 146.277L305.34 147.133L303.84 147.906L305.34 148.668L304.848 149.523L303.43 148.598L303.523 150.285Z" fill="white"/>
<rect opacity="0.3" x="181" width="93" height="78" rx="8" fill="#F3F4F6"/>
<rect width="325" height="175" rx="15" fill="url(#paint1_linear_2103_401)"/>
<path d="M31.8818 118.765V120.275H26.1875V122.948H31.2842V124.409H26.1875V127.497C28.6445 127.489 30.5205 127.406 32.6787 127.049L32.8613 128.543C30.5039 128.908 28.3955 128.991 25.623 128.991H24.3613V118.765H31.8818ZM36.0322 117.47V132.478H34.1729V117.47H36.0322ZM45.8271 118.864V122.766H48.9482V117.47H50.7744V132.494H48.9482V124.26H45.8271V128.775H38.7549V118.864H45.8271ZM40.5977 120.309V127.314H44.0176V120.309H40.5977ZM65.4004 117.47V132.478H63.5742V117.47H65.4004ZM55.5723 118.931V127.132C57.6807 127.099 59.9219 126.908 62.2295 126.451L62.4619 127.995C59.8223 128.543 57.3652 128.709 55.041 128.709H53.7461V118.931H55.5723ZM75.3779 118.947C75.3779 123.479 74.1328 127.364 68.6045 130.12L67.5918 128.726C70.1899 127.439 71.7339 125.945 72.6055 124.16L67.9404 124.608L67.708 123.015L73.1699 122.666C73.3608 121.969 73.4771 121.23 73.5352 120.441H68.4883V118.947H75.3779ZM79.3291 117.47V123.347H81.5537V124.857H79.3291V132.444H77.4863V117.47H79.3291ZM94.4531 124.509V125.986H83.9277V118.781H94.3369V120.275H85.7539V124.509H94.4531ZM95.9805 129.041V130.568H82.2676V129.041H95.9805Z" fill="white"/>
<rect x="21" y="141" width="72" height="22" rx="11" fill="#EE6575"/>
<path d="M38.2227 147.422V148.336H34.1328V150.363H37.8242V151.254H34.1328V153.609C35.9727 153.604 37.2969 153.527 38.8555 153.281L38.9727 154.184C37.3086 154.453 35.8672 154.512 33.8867 154.512H33.0312V147.422H38.2227ZM41.1172 146.496V156.996H39.9922V146.496H41.1172ZM48.043 147.504V150.27H50.4102V146.496H51.5117V157.02H50.4102V151.172H48.043V154.371H43.168V147.504H48.043ZM44.2695 148.371V153.48H46.9531V148.371H44.2695ZM61.8477 146.496V156.996H60.7344V146.496H61.8477ZM54.875 147.516V153.363C56.4043 153.352 58.0156 153.229 59.7031 152.883L59.8555 153.82C57.9922 154.195 56.3047 154.324 54.6523 154.324H53.7734V147.516H54.875ZM68.9609 147.562C68.9492 150.656 68 153.41 64.168 155.297L63.5586 154.465C65.457 153.533 66.5879 152.402 67.2148 151.066L63.7812 151.395L63.6172 150.434L67.5547 150.164C67.7129 149.631 67.8066 149.062 67.8477 148.465H64.168V147.562H68.9609ZM71.6797 146.496V150.691H73.3086V151.605H71.6797V156.984H70.5664V146.496H71.6797ZM82.3789 151.477V152.391H75.0664V147.434H82.2852V148.348H76.168V151.477H82.3789ZM83.4805 154.688V155.613H73.8711V154.688H83.4805Z" fill="#E9E9E9"/>
<path d="M198.148 145.516V154H196.613V147.004H196.566L194.586 148.27V146.875L196.684 145.516H198.148ZM203.34 154.117C201.301 154.117 200.082 152.535 200.082 149.758C200.082 146.992 201.301 145.398 203.34 145.398C205.367 145.398 206.598 146.992 206.598 149.758C206.598 152.535 205.379 154.117 203.34 154.117ZM203.34 152.84C204.406 152.84 205.062 151.797 205.062 149.758C205.062 147.73 204.395 146.664 203.34 146.664C202.285 146.664 201.617 147.73 201.617 149.758C201.617 151.797 202.273 152.84 203.34 152.84ZM211.32 145.516V154H209.785V147.004H209.738L207.758 148.27V146.875L209.855 145.516H211.32ZM216.512 154.117C214.473 154.117 213.254 152.535 213.254 149.758C213.254 146.992 214.473 145.398 216.512 145.398C218.539 145.398 219.77 146.992 219.77 149.758C219.77 152.535 218.551 154.117 216.512 154.117ZM216.512 152.84C217.578 152.84 218.234 151.797 218.234 149.758C218.234 147.73 217.566 146.664 216.512 146.664C215.457 146.664 214.789 147.73 214.789 149.758C214.789 151.797 215.445 152.84 216.512 152.84ZM227.023 154.117C224.984 154.117 223.766 152.535 223.766 149.758C223.766 146.992 224.984 145.398 227.023 145.398C229.051 145.398 230.281 146.992 230.281 149.758C230.281 152.535 229.062 154.117 227.023 154.117ZM227.023 152.84C228.09 152.84 228.746 151.797 228.746 149.758C228.746 147.73 228.078 146.664 227.023 146.664C225.969 146.664 225.301 147.73 225.301 149.758C225.301 151.797 225.957 152.84 227.023 152.84ZM234.688 154.117C232.648 154.117 231.43 152.535 231.43 149.758C231.43 146.992 232.648 145.398 234.688 145.398C236.715 145.398 237.945 146.992 237.945 149.758C237.945 152.535 236.727 154.117 234.688 154.117ZM234.688 152.84C235.754 152.84 236.41 151.797 236.41 149.758C236.41 147.73 235.742 146.664 234.688 146.664C233.633 146.664 232.965 147.73 232.965 149.758C232.965 151.797 233.621 152.84 234.688 152.84ZM242.668 145.516V154H241.133V147.004H241.086L239.105 148.27V146.875L241.203 145.516H242.668ZM245.047 154L248.727 146.852V146.793H244.461V145.516H250.309V146.816L246.629 154H245.047ZM257.281 150.285H256.285L256.379 148.598L254.961 149.523L254.457 148.668L255.969 147.906L254.457 147.133L254.961 146.277L256.379 147.203L256.285 145.516H257.281L257.188 147.203L258.605 146.277L259.098 147.133L257.598 147.906L259.098 148.668L258.605 149.523L257.188 148.598L257.281 150.285ZM263.48 150.285H262.484L262.578 148.598L261.16 149.523L260.656 148.668L262.168 147.906L260.656 147.133L261.16 146.277L262.578 147.203L262.484 145.516H263.48L263.387 147.203L264.805 146.277L265.297 147.133L263.797 147.906L265.297 148.668L264.805 149.523L263.387 148.598L263.48 150.285ZM269.68 150.285H268.684L268.777 148.598L267.359 149.523L266.855 148.668L268.367 147.906L266.855 147.133L267.359 146.277L268.777 147.203L268.684 145.516H269.68L269.586 147.203L271.004 146.277L271.496 147.133L269.996 147.906L271.496 148.668L271.004 149.523L269.586 148.598L269.68 150.285ZM275.879 150.285H274.883L274.977 148.598L273.559 149.523L273.055 148.668L274.566 147.906L273.055 147.133L273.559 146.277L274.977 147.203L274.883 145.516H275.879L275.785 147.203L277.203 146.277L277.695 147.133L276.195 147.906L277.695 148.668L277.203 149.523L275.785 148.598L275.879 150.285ZM284.926 150.285H283.93L284.023 148.598L282.605 149.523L282.102 148.668L283.613 147.906L282.102 147.133L282.605 146.277L284.023 147.203L283.93 145.516H284.926L284.832 147.203L286.25 146.277L286.742 147.133L285.242 147.906L286.742 148.668L286.25 149.523L284.832 148.598L284.926 150.285ZM291.125 150.285H290.129L290.223 148.598L288.805 149.523L288.301 148.668L289.812 147.906L288.301 147.133L288.805 146.277L290.223 147.203L290.129 145.516H291.125L291.031 147.203L292.449 146.277L292.941 147.133L291.441 147.906L292.941 148.668L292.449 149.523L291.031 148.598L291.125 150.285ZM297.324 150.285H296.328L296.422 148.598L295.004 149.523L294.5 148.668L296.012 147.906L294.5 147.133L295.004 146.277L296.422 147.203L296.328 145.516H297.324L297.23 147.203L298.648 146.277L299.141 147.133L297.641 147.906L299.141 148.668L298.648 149.523L297.23 148.598L297.324 150.285ZM303.523 150.285H302.527L302.621 148.598L301.203 149.523L300.699 148.668L302.211 147.906L300.699 147.133L301.203 146.277L302.621 147.203L302.527 145.516H303.523L303.43 147.203L304.848 146.277L305.34 147.133L303.84 147.906L305.34 148.668L304.848 149.523L303.43 148.598L303.523 150.285Z" fill="white"/>
<path d="M263.745 31H261.782V23.356H259.26V21.718H266.267V23.356H263.745V31ZM275.156 24.328C275.9 24.328 276.46 24.52 276.836 24.904C277.22 25.28 277.412 25.888 277.412 26.728V31H275.624V27.172C275.624 26.7 275.544 26.348 275.384 26.116C275.224 25.876 274.976 25.756 274.64 25.756C274.168 25.756 273.832 25.924 273.632 26.26C273.432 26.596 273.332 27.08 273.332 27.712V31H271.544V27.172C271.544 26.86 271.508 26.6 271.436 26.392C271.364 26.184 271.256 26.028 271.112 25.924C270.968 25.812 270.784 25.756 270.56 25.756C270.232 25.756 269.972 25.84 269.78 26.008C269.588 26.176 269.452 26.42 269.372 26.74C269.292 27.06 269.252 27.452 269.252 27.916V31H267.464V24.448H268.832L269.072 25.288H269.168C269.304 25.064 269.472 24.884 269.672 24.748C269.872 24.604 270.092 24.5 270.332 24.436C270.58 24.364 270.828 24.328 271.076 24.328C271.556 24.328 271.964 24.408 272.3 24.568C272.636 24.72 272.892 24.96 273.068 25.288H273.224C273.424 24.952 273.7 24.708 274.052 24.556C274.412 24.404 274.78 24.328 275.156 24.328ZM285.205 27.712C285.205 28.256 285.129 28.74 284.977 29.164C284.833 29.588 284.621 29.948 284.341 30.244C284.069 30.532 283.737 30.752 283.345 30.904C282.953 31.048 282.509 31.12 282.013 31.12C281.557 31.12 281.133 31.048 280.741 30.904C280.357 30.752 280.025 30.532 279.745 30.244C279.465 29.948 279.245 29.588 279.085 29.164C278.933 28.74 278.857 28.256 278.857 27.712C278.857 26.984 278.985 26.372 279.241 25.876C279.497 25.372 279.865 24.988 280.345 24.724C280.825 24.46 281.393 24.328 282.049 24.328C282.665 24.328 283.209 24.46 283.681 24.724C284.153 24.988 284.525 25.372 284.797 25.876C285.069 26.372 285.205 26.984 285.205 27.712ZM280.681 27.712C280.681 28.144 280.725 28.508 280.813 28.804C280.909 29.092 281.057 29.312 281.257 29.464C281.457 29.608 281.717 29.68 282.037 29.68C282.357 29.68 282.613 29.608 282.805 29.464C283.005 29.312 283.149 29.092 283.237 28.804C283.333 28.508 283.381 28.144 283.381 27.712C283.381 27.28 283.333 26.92 283.237 26.632C283.149 26.344 283.005 26.128 282.805 25.984C282.605 25.84 282.345 25.768 282.025 25.768C281.553 25.768 281.209 25.932 280.993 26.26C280.785 26.58 280.681 27.064 280.681 27.712ZM290.403 24.328C291.107 24.328 291.671 24.52 292.095 24.904C292.519 25.28 292.731 25.888 292.731 26.728V31H290.943V27.172C290.943 26.7 290.859 26.348 290.691 26.116C290.523 25.876 290.255 25.756 289.887 25.756C289.343 25.756 288.971 25.944 288.771 26.32C288.571 26.688 288.471 27.22 288.471 27.916V31H286.683V24.448H288.051L288.291 25.288H288.387C288.531 25.064 288.707 24.884 288.915 24.748C289.123 24.604 289.355 24.5 289.611 24.436C289.867 24.364 290.131 24.328 290.403 24.328ZM297.27 24.328C297.878 24.328 298.398 24.444 298.83 24.676C299.27 24.908 299.61 25.244 299.85 25.684C300.09 26.124 300.21 26.664 300.21 27.304V28.168H295.986C296.002 28.672 296.15 29.068 296.43 29.356C296.718 29.644 297.114 29.788 297.618 29.788C298.042 29.788 298.426 29.748 298.77 29.668C299.114 29.58 299.47 29.448 299.838 29.272V30.652C299.518 30.812 299.178 30.928 298.818 31C298.466 31.08 298.038 31.12 297.534 31.12C296.878 31.12 296.298 31 295.794 30.76C295.29 30.512 294.894 30.14 294.606 29.644C294.318 29.148 294.174 28.524 294.174 27.772C294.174 27.004 294.302 26.368 294.558 25.864C294.822 25.352 295.186 24.968 295.65 24.712C296.114 24.456 296.654 24.328 297.27 24.328ZM297.282 25.6C296.938 25.6 296.65 25.712 296.418 25.936C296.194 26.16 296.062 26.508 296.022 26.98H298.53C298.53 26.716 298.482 26.48 298.386 26.272C298.298 26.064 298.162 25.9 297.978 25.78C297.794 25.66 297.562 25.6 297.282 25.6ZM300.489 24.448H302.445L303.681 28.132C303.721 28.252 303.753 28.372 303.777 28.492C303.809 28.612 303.833 28.736 303.849 28.864C303.873 28.992 303.889 29.128 303.897 29.272H303.933C303.957 29.064 303.989 28.868 304.029 28.684C304.077 28.492 304.129 28.308 304.185 28.132L305.397 24.448H307.317L304.545 31.84C304.377 32.288 304.157 32.664 303.885 32.968C303.621 33.272 303.313 33.5 302.961 33.652C302.609 33.804 302.225 33.88 301.809 33.88C301.609 33.88 301.433 33.868 301.281 33.844C301.137 33.828 301.009 33.808 300.897 33.784V32.368C300.985 32.384 301.089 32.4 301.209 32.416C301.337 32.432 301.469 32.44 301.605 32.44C301.853 32.44 302.065 32.388 302.241 32.284C302.425 32.18 302.577 32.036 302.697 31.852C302.817 31.676 302.913 31.484 302.985 31.276L303.093 30.952L300.489 24.448Z" fill="white"/>
<defs>
<linearGradient id="paint0_linear_2103_401" x1="162.5" y1="0" x2="162.5" y2="175" gradientUnits="userSpaceOnUse">
<stop stop-color="#FF9655"/>
<stop offset="1" stop-color="#D113AB"/>
</linearGradient>
<linearGradient id="paint1_linear_2103_401" x1="162.5" y1="0" x2="162.5" y2="175" gradientUnits="userSpaceOnUse">
<stop stop-color="#FF9655"/>
<stop offset="1" stop-color="#D113AB"/>
</linearGradient>
</defs>
</svg>
