<svg width="17" height="18" viewBox="0 0 17 18" fill="none" xmlns="http://www.w3.org/2000/svg">
<path d="M9.3012 0.980288C9.08869 0.743535 8.8005 0.610535 8.5 0.610535C8.19951 0.610535 7.91131 0.743535 7.6988 0.980288L0.166169 9.37338C0.113487 9.43208 0.071697 9.50178 0.0431858 9.57849C0.0146746 9.65519 0 9.73741 0 9.82043C0 9.90346 0.0146746 9.98567 0.0431858 10.0624C0.071697 10.1391 0.113487 10.2088 0.166169 10.2675C0.272564 10.3861 0.416868 10.4527 0.567335 10.4527C0.641838 10.4527 0.715612 10.4363 0.784444 10.4045C0.853276 10.3728 0.915819 10.3262 0.968501 10.2675L8.5 1.87314L16.0315 10.2675C16.1379 10.3861 16.2822 10.4527 16.4327 10.4527C16.5831 10.4527 16.7274 10.3861 16.8338 10.2675C16.9402 10.1489 17 9.98811 17 9.82043C17 9.65276 16.9402 9.49194 16.8338 9.37338L14.1662 6.40182V2.24317C14.1662 2.0757 14.1065 1.91509 14.0002 1.79667C13.894 1.67825 13.7498 1.61173 13.5996 1.61173H12.4663C12.3161 1.61173 12.1719 1.67825 12.0657 1.79667C11.9594 1.91509 11.8997 2.0757 11.8997 2.24317V3.87607L9.3012 0.980288Z" fill="#7688FB"/>
<path d="M8.50002 4.18945L15.4546 11.068V15.8909C15.4546 16.347 15.2714 16.7844 14.9453 17.1069C14.6193 17.4294 14.177 17.6105 13.7159 17.6105H3.28411C2.82299 17.6105 2.38076 17.4294 2.05471 17.1069C1.72865 16.7844 1.54547 16.347 1.54547 15.8909V11.068L8.50002 4.18945Z" fill="#7688FB"/>
</svg>
